<?xml version="1.0" encoding="UTF-8"?>
<svg id="Layer_2" data-name="Layer 2" xmlns="http://www.w3.org/2000/svg" viewBox="0 0 203.62 138.85">
  <defs>
    <style>
      .cls-1 {
        fill: #fff;
      }
    </style>
  </defs>
  <g id="OBJECTS">
    <g>
      <polygon class="cls-1" points="96.54 138.85 119.73 138.85 63.73 0 40.55 0 77.13 90.71 42.6 90.71 53.54 63.59 41.94 34.84 0 138.85 23.19 138.85 34.02 111.97 85.7 111.97 96.54 138.85"/>
      <path class="cls-1" d="m147.63,0h-53.71s-23.19,0-23.19,0l36.58,90.71h-7.01l8.58,21.26h7.01l10.84,26.88h23.19L102.5,21.27h45.13c19.14,0,34.72,15.58,34.72,34.72s-15.58,34.72-34.72,34.72h-4.46l8.51,21.1c28.98-2.08,51.93-26.32,51.93-55.82S178.5,0,147.63,0Z"/>
    </g>
  </g>
</svg>